<svg xmlns="http://www.w3.org/2000/svg" xmlns:xlink="http://www.w3.org/1999/xlink" width="32" height="32" viewBox="0 0 32 32">
  <defs>
    <clipPath id="clip-path">
      <circle id="Ellipse_357" data-name="Ellipse 357" cx="16" cy="16" r="16" transform="translate(515 557)" fill="#707070" stroke="#707070" stroke-width="1"/>
    </clipPath>
  </defs>
  <g id="Mask_Group_3389" data-name="Mask Group 3389" transform="translate(-515 -557)" clip-path="url(#clip-path)">
    <path id="account_circle_FILL1_wght400_GRAD0_opsz48_1_" data-name="account_circle_FILL1_wght400_GRAD0_opsz48 (1)" d="M8.88,28.2a22.754,22.754,0,0,1,4.98-2.42,16.791,16.791,0,0,1,5.34-.82,16.976,16.976,0,0,1,5.36.82,22.594,22.594,0,0,1,5,2.42,14.042,14.042,0,0,0,2.5-4.36,14.456,14.456,0,0,0,.74-4.64A13.325,13.325,0,0,0,19.2,5.6,13.325,13.325,0,0,0,5.6,19.2a14.11,14.11,0,0,0,.76,4.64A14.4,14.4,0,0,0,8.88,28.2ZM19.2,20.4a5.4,5.4,0,0,1-5.48-5.48A5.4,5.4,0,0,1,19.2,9.44a5.4,5.4,0,0,1,5.48,5.48A5.4,5.4,0,0,1,19.2,20.4Zm0,14.8a15.68,15.68,0,0,1-6.28-1.26A15.922,15.922,0,0,1,4.44,25.4,15.8,15.8,0,0,1,3.2,19.16a15.481,15.481,0,0,1,1.26-6.2A15.99,15.99,0,0,1,7.9,7.88,16.4,16.4,0,0,1,13,4.46a15.982,15.982,0,0,1,12.44,0,15.975,15.975,0,0,1,8.5,8.5,15.982,15.982,0,0,1,0,12.44,16.4,16.4,0,0,1-3.42,5.1,15.99,15.99,0,0,1-5.08,3.44A15.58,15.58,0,0,1,19.2,35.2Z" transform="translate(511.8 553.8)" fill="#707070"/>
  </g>
</svg>
