<svg xmlns="http://www.w3.org/2000/svg" viewBox="0 0 841.89 595.28"><defs><style>.cls-1{fill:#22345b;}.cls-2{fill:none;}</style></defs><title>Light</title><g id="Layer_8" data-name="Layer 8"><path class="cls-1" d="M605.81,255.76v35.61H588.62V197.11c.33,0,.59-.09.84-.09,14.16,0,28.32-.18,42.47.18,9.3.23,17.42,3.73,23.46,11.14,9.44,11.56,8.92,36.22-11.37,44.19-.19.07-.37.17-.75.34l17.26,38.47c-.58.05-1,.11-1.46.11-5.33,0-10.65,0-16,0a1.92,1.92,0,0,1-2.09-1.4c-4.67-11-9.41-21.94-14.08-32.93a2,2,0,0,0-2.23-1.44c-5.7.07-11.39,0-17.09,0Zm0-15.68c8.76,0,17.37.28,26-.1,5.18-.23,9.41-2.9,11.24-8.08,3.38-9.55-1.84-19.48-13.24-19.77-7.7-.2-15.42,0-23.13-.06a7,7,0,0,0-.83.09Z"/><path class="cls-1" d="M554.68,257.62c-.49-3.73-.67-6.71-1.28-9.6-2.13-10.05-10-15.36-19.53-13.31-6.48,1.39-9.8,6.08-11.55,11.95a35.14,35.14,0,0,0,.26,21c1.73,5.42,5.13,9.56,10.93,11,8.43,2.13,16.11-1.87,18.92-10.14C553.69,264.85,554,260.83,554.68,257.62Zm15.44-62.52v96.24H555.69c-.3-3-.62-6-1-9.27-5.61,12.22-22.42,13.61-32.93,8.32-7.76-3.91-12.69-10.19-15.3-18.31-4.11-12.86-3.59-25.51,3-37.46,5.1-9.25,13.38-13.81,23.91-14.22a40.66,40.66,0,0,1,7.63.42,18.76,18.76,0,0,1,11.58,6.76c.18.21.35.4.54.59,0,0,.08,0,.33,0V205.41Z"/><path class="cls-1" d="M189.38,254.94v36.42h-17v-94.2a6.82,6.82,0,0,1,1-.14c13.35,0,26.71-.11,40.06.16,7.37.15,14.32,2.27,20,7.18,7.71,6.64,10.1,15.39,9.09,25.15-1.63,15.67-12.95,23.52-25.83,24.84-8.32.85-16.78.44-25.18.59Zm.08-15.15c7.51,0,14.85.23,22.18-.07,8.3-.33,12.92-4.52,13.67-12.05.69-6.87-2.18-13.44-10.67-15a27.21,27.21,0,0,0-4.58-.51c-6.49-.06-13,0-19.46,0-.36,0-.71,0-1.14.05Z"/><path class="cls-1" d="M838.18,291.33c-.61.06-1,.12-1.39.12-5.64,0-11.28,0-16.92,0a2.24,2.24,0,0,1-2.15-1.22q-8.52-13.2-17.09-26.34c-.31-.49-.65-1-1.09-1.6a74.35,74.35,0,0,1-5.77,6.18c-3.37,2.87-4.53,6.25-4.15,10.62.37,4,.09,8.06.09,12.21H773.1v-86l16.59-10.3v57.36c.65-.7,1-1.06,1.35-1.45q11.94-13.71,23.85-27.45a3.48,3.48,0,0,1,3-1.36c5.64.07,11.28,0,16.92,0h2.11l-26.12,28.22C819.88,264,829,277.58,838.18,291.33Z"/><path class="cls-1" d="M330.84,282.66a26.84,26.84,0,0,1-35.79,6.72c-7.21-4.51-10.31-11.26-9.75-19.62s5.05-14.09,12.62-17.5c4.28-1.94,8.85-2.56,13.49-2.88,5.83-.39,11.67-.81,17.67-1.22.1-3.6.34-7.08-1.5-10.29a8.84,8.84,0,0,0-6.22-4.32,21.08,21.08,0,0,0-9.8.2,9.19,9.19,0,0,0-7.25,8.13,6.34,6.34,0,0,1-.14.78,1.85,1.85,0,0,1-.21.34H288.11a15.89,15.89,0,0,1,1.12-6.86c2.1-5.68,6.13-9.6,11.48-12.25,6.65-3.28,13.71-4,21-3.36a29.54,29.54,0,0,1,14.53,4.77c5.25,3.61,7.83,8.83,8.69,15a58.17,58.17,0,0,1,.49,7.46c.06,8.4,0,16.79,0,25.19,0,.63,0,1.27,0,1.91.17,2.63,1.4,3.81,4.07,3.85.68,0,1.36-.08,2.22-.14,0,.53.09,1,.09,1.54,0,3.13,0,6.27,0,9.4a2,2,0,0,1-.87,1.59c-4.84,2-9.73,2.21-14.48-.25a10.85,10.85,0,0,1-5.16-6.62C331.15,283.74,331,283.29,330.84,282.66Zm-1.9-22.12c-.45,0-.92,0-1.38,0-5.36.42-10.73.69-16.05,1.34a17.18,17.18,0,0,0-6.39,2.2,7.85,7.85,0,0,0-3.1,3.82c-1.81,4.89.77,9.77,5.74,11.41A16.23,16.23,0,0,0,328.94,260.54Z"/><path class="cls-1" d="M495,261.6H447.31c-1,7.41,4.86,16.2,12.09,18,6.39,1.57,15.75.36,18.55-8.79h15.51a24.72,24.72,0,0,1-10,16.5c-6.55,4.78-14,6.42-22,6-14.56-.8-27.48-10.72-30.35-28.37-1.59-9.8-.65-19.29,4.18-28.14a32.05,32.05,0,0,1,32.3-16.26c13.58,1.63,25.59,10.82,27.37,29.25C495.36,253.57,495,257.46,495,261.6Zm-47.71-12.25h31.3c-.1-5.56-1.41-10.53-6.38-13.52a16,16,0,0,0-17-.09C450.12,238.67,447.79,243.45,447.33,249.35Z"/><path class="cls-1" d="M702.94,269.25h15.75a1.33,1.33,0,0,1,.19.33c.72,6.2,3.39,9.13,9.54,10.43a22.1,22.1,0,0,0,13.16-1c2.81-1.15,4.86-3.12,5.38-6.23.71-4.25-1.61-7.59-6.11-8.38-5.23-.92-10.53-1.44-15.78-2.29a36.38,36.38,0,0,1-8.18-1.93c-12.16-5.09-14.29-16.73-9.53-26.22,3-6,8.15-9.77,14.46-11.75,10.83-3.38,21.28-2.69,30.72,4.1a19.59,19.59,0,0,1,8.56,16.26H745.42s-.14-.09-.16-.17c-1.06-6.06-3.62-8.59-9.81-9.41A17.6,17.6,0,0,0,725,234.59a7.17,7.17,0,0,0-4.21,7.54,5.48,5.48,0,0,0,3.06,4.71c3,1.6,6.32,1.73,9.57,2.21,4.41.66,8.9,1,13.23,2,7.33,1.73,13,5.8,15.08,13.36,2.39,8.57-.07,17.91-8.75,23.5-7.08,4.55-15,5.8-23.23,5.29a33.32,33.32,0,0,1-15.57-4.69c-6.66-4.1-10.66-9.92-11.27-17.85C702.91,270.25,702.94,269.83,702.94,269.25Z"/><path class="cls-1" d="M422.26,267.32a24.43,24.43,0,0,1-6,15.52c-7,8.25-16.27,11-26.74,10.39A31,31,0,0,1,377,290,28.91,28.91,0,0,1,362.57,274a47,47,0,0,1-.07-34.25,30.74,30.74,0,0,1,27.9-19.43c8.3-.24,16,1.45,22.55,6.77,5.57,4.52,8.45,10.51,9.23,17.57a15.14,15.14,0,0,1,0,1.66H406.3c-.1-.33-.24-.67-.31-1-1.2-6.69-5.52-10.41-12.32-10.6-9.06-.26-15,4.63-16.53,13.6A46.58,46.58,0,0,0,377.5,267c2.29,9.76,12.13,14.47,21.64,10.68,3.91-1.55,6-4.77,6.75-8.84.21-1.17.6-1.57,1.82-1.55C412.49,267.36,417.26,267.32,422.26,267.32Z"/><path class="cls-1" d="M279,277.43v13.93c-6.5,1.42-12.8,1.44-18.74-1.9-4.81-2.7-6.75-7.15-7.3-12.37a44.19,44.19,0,0,1-.2-4.61q0-33.48,0-66.94l16.8-10.43h0v74.5c0,6.55,1.51,8,8,7.82Z"/><path class="cls-1" d="M691.21,291.37H674.43v-69h16.78Z"/><polygon class="cls-1" points="691.66 195.24 691.66 212.24 673.93 212.24 673.93 206.24 691.66 195.24"/><path class="cls-1" d="M525.73,374.44c0,.17-.32.39-.53.46a19.35,19.35,0,0,1-10.47.68,10.58,10.58,0,0,1-8.24-9.45,25,25,0,0,1-.16-2.87q0-11.17,0-22.34V339.6h-9.13v-6h9.08V319.79l7.12-4.42v18.18H525.3v6H513.41v23.13a14.77,14.77,0,0,0,.07,1.88c.42,3.07,2.37,4.79,5.63,4.88a21.08,21.08,0,0,0,3.27-.17c1.08-.11,2.14-.35,3.37-.56C525.75,370.65,525.77,372.55,525.73,374.44Z"/><path class="cls-1" d="M377.7,333.73h-7.57c-.13-.82-.23-1.63-.41-2.43a11.37,11.37,0,0,0-10.13-8.86,18,18,0,0,0-9.26,1c-4.73,1.95-7.27,6.61-6.17,11.26a7.23,7.23,0,0,0,5,5.37,47.29,47.29,0,0,0,6.26,1.42c3.89.77,7.87,1.2,11.66,2.28,4.5,1.28,8.24,3.92,10.26,8.31,3.3,7.22,1.79,16.05-6.68,21.12a26,26,0,0,1-14.58,3.41c-5.51-.2-10.65-1.62-15-5.14a17.88,17.88,0,0,1-6.9-12.91c-.05-.53,0-1.05,0-1.64h7.62c.06.49.09,1,.17,1.44a12.57,12.57,0,0,0,8.94,10.41,19.39,19.39,0,0,0,14.25-.5c4.81-2,7.1-6.7,5.72-11.39-1.07-3.65-3.77-5.64-7.31-6.39s-7.31-1.18-10.95-1.86a41.48,41.48,0,0,1-6.24-1.53c-11.06-3.91-12.75-16.75-6.24-24.22a21.22,21.22,0,0,1,14.33-7.29,22,22,0,0,1,16.84,4.72,17.58,17.58,0,0,1,6.51,12.39c0,.23,0,.47,0,.7A1.72,1.72,0,0,1,377.7,333.73Z"/><path class="cls-1" d="M590.47,354.6a30.47,30.47,0,0,1-2.06,11.32,18.38,18.38,0,0,1-18.81,10.67c-7.73-.77-13.22-4.61-16-11.94a30.8,30.8,0,0,1-1.37-13.82,23,23,0,0,1,2.5-9.11,18.58,18.58,0,0,1,18.5-9.25c7.42.85,12.71,4.6,15.5,11.57A29.51,29.51,0,0,1,590.47,354.6Zm-7.05.13c-.31-2.46-.45-4.71-.89-6.9-1.17-5.74-5.24-9.19-10.84-9.36s-10,2.91-11.45,8.43a29,29,0,0,0,0,15.3,11.4,11.4,0,0,0,22-.13C582.9,359.62,583.07,357.06,583.42,354.73Z"/><path class="cls-1" d="M385.76,354.6A29.11,29.11,0,0,1,387.45,344c2.8-7,8.09-10.71,15.51-11.56a18.61,18.61,0,0,1,18.44,9.19,22.87,22.87,0,0,1,2.53,9.11,30.63,30.63,0,0,1-1.37,13.91c-2.73,7.33-8.23,11.16-16,11.92a18.37,18.37,0,0,1-18.8-10.69A30,30,0,0,1,385.76,354.6Zm7.05-.36c.3,2.46.44,4.71.88,6.9,1.16,5.73,5.21,9.24,10.68,9.41,5.85.19,10.13-2.85,11.62-8.47a29.09,29.09,0,0,0-.05-15.3,11.41,11.41,0,0,0-22,.22A71.42,71.42,0,0,0,392.81,354.24Z"/><path class="cls-1" d="M644.46,362.24h6.95c.13.73.21,1.42.37,2.08a7.39,7.39,0,0,0,4.35,5.11,14.72,14.72,0,0,0,11.76.28,6.18,6.18,0,0,0,4.28-6.54,4.41,4.41,0,0,0-2.9-4.05,38.6,38.6,0,0,0-5.92-1.5c-3-.6-6.11-.88-9.07-1.66-4.09-1.07-7.13-3.5-8.06-7.87a11.35,11.35,0,0,1,4.16-11.87c6.16-5,16.68-5.13,23-.25a11.94,11.94,0,0,1,4.71,9.77h-6.94c-.08-.49-.13-.91-.21-1.33a6.76,6.76,0,0,0-4.15-5.09,12.41,12.41,0,0,0-10.74.27,5.58,5.58,0,0,0-3.37,5.2c0,2.14.82,3.76,2.81,4.44a42.67,42.67,0,0,0,6,1.4c2.72.52,5.51.78,8.19,1.45,4.4,1.1,7.73,3.6,9.08,8.14a11.85,11.85,0,0,1-5,13.27c-4.06,2.71-8.63,3.37-13.38,3.09a19.66,19.66,0,0,1-8.8-2.48,13.19,13.19,0,0,1-7.06-10.93C644.44,362.88,644.46,362.59,644.46,362.24Z"/><path class="cls-1" d="M600.9,333.6H607c.19,2,.38,4,.6,6.3a13,13,0,0,1,6.92-6.22c5.4-2.1,10.66-1.89,15.51,1.47,3.08,2.15,4.46,5.41,5,9a26.37,26.37,0,0,1,.27,3.86q0,13.26,0,26.52c0,.26,0,.52,0,.85h-7V374.3c0-8.3,0-16.61,0-24.92a18.15,18.15,0,0,0-.26-3.46c-1-5.26-4.23-7.51-9.73-7.08-4.76.38-8.23,3.53-9.58,8.62a24.65,24.65,0,0,0-.74,5.87c-.08,6.95,0,13.91,0,20.86v1.23h-7Z"/><path class="cls-1" d="M489.15,375.45h-6c-.16-2.1-.33-4.19-.5-6.34-.11.08-.21.12-.24.19-2.07,4.89-8.06,7.82-13.74,7.29-4.52-.42-8.3-2.14-10.91-6a14,14,0,0,1-2.44-7.85c-.09-9.57,0-19.14-.06-28.7,0-.13,0-.26.05-.44h7v1.17q0,12.36,0,24.73a20.2,20.2,0,0,0,.29,3.65c.92,4.9,4.09,7.33,9.09,7.08,5.42-.27,8.78-3.23,10-9a29.63,29.63,0,0,0,.56-5.71c.07-6.89,0-13.78,0-20.66v-1.24h7Z"/><path class="cls-1" d="M448,369.51v6c-3.28.78-6.54,1-9.64-.64-2.65-1.41-3.66-3.89-4-6.71a27.63,27.63,0,0,1-.13-2.88q0-22.74,0-45.48l7.07-4.39v49.33c0,4.18,1.28,5.33,5.44,4.9Z"/><path class="cls-1" d="M534.55,333.59h7.07v41.82h-7.07Z"/><polygon class="cls-1" points="542.16 315.58 542.16 323.77 534.06 323.77 534.06 320.61 542.16 315.58"/></g><g id="Layer_9" data-name="Layer 9"><path class="cls-1" d="M35.92,299.61a46.87,46.87,0,0,1-4.31,13.88c-.18.37-.35.73-.52,1.1a110.33,110.33,0,0,1-16,24.36l0,0a109.92,109.92,0,0,0,16-24.41c.17-.37.34-.73.52-1.1A47.34,47.34,0,0,0,35.92,299.61Z"/><path class="cls-1" d="M47.78,304.71a26.66,26.66,0,0,0-2.14-9A29.31,29.31,0,0,0,33.1,282.12h0A.61.61,0,0,0,33,282a29.28,29.28,0,0,1,12.6,13.66A26.71,26.71,0,0,1,47.78,304.71Z"/><path class="cls-1" d="M56.32,366.6l-.29-.4A198.58,198.58,0,0,0,32.93,340l-.85-.82.05,0,.8.77A198.41,198.41,0,0,1,56,366l.14.21Z"/><path class="cls-1" d="M127.67,330.4a45.11,45.11,0,0,0-11.44-26.65L31,218.94a47.22,47.22,0,0,1-5.67-8.17,4.79,4.79,0,0,1-.25-.45,46.31,46.31,0,0,1-2.56-5.65,1.51,1.51,0,0,0-.11.22q-.33.63-.63,1.29c-.21.44-.4.88-.59,1.33s-.31.78-.46,1.17A39.52,39.52,0,0,0,19,216.14a39.8,39.8,0,0,1,1.67-7.55c.15-.39.3-.78.46-1.17s.38-.89.59-1.33.41-.87.63-1.29a1.51,1.51,0,0,1,.11-.22A46.31,46.31,0,0,0,25,210.23a4.79,4.79,0,0,0,.25.45A47.22,47.22,0,0,0,31,218.85L72.37,260h0l6.23,6.2,37.62,37.41a45.07,45.07,0,0,1,11.44,26.74Z"/><path class="cls-1" d="M126.43,339.31l-.56.39-.31.22a146.64,146.64,0,0,0-28.67,26.33l-.27.33.19-.3L97,366a146.72,146.72,0,0,1,28.58-26.21l.31-.22.52-.36Z"/><path class="cls-1" d="M127.75,331.66v.09c0-.45,0-.9-.08-1.35C127.71,330.82,127.73,331.24,127.75,331.66Z"/><path class="cls-1" d="M139.19,194.92a2.47,2.47,0,0,0-.35-.37L137.13,193c-1-.91-2-1.82-3.08-2.71s-2-1.71-3-2.57-2.19-1.91-3.27-2.89a28.1,28.1,0,0,1-3.84-3.64,7.18,7.18,0,0,1-1.58-5.51,1.87,1.87,0,0,0-.22-1.32,8.33,8.33,0,0,0-1.23-1.62c-1-.85-2-1.61-3-2.38-1.92-1.44-3.84-2.87-5.78-4.28a28.79,28.79,0,0,0-2.63-1.77,40,40,0,0,0-7.54-3,1.67,1.67,0,0,0-.83,0,6,6,0,0,0-1.36.5c-1.36.73-2.69,1.5-4,2.25-.23.13-.47.25-.71.37-.07-.17-.11-.23-.1-.27a.79.79,0,0,1,.13-.31c1.16-1.3,2.28-2.64,3.5-3.87a3.94,3.94,0,0,1,4.08-1.13c1.26.34,2.55.61,3.83.92.59.15.76.07.94-.52s.24-.94.35-1.42a2.68,2.68,0,0,0-1.34-3.21q-2.42-1.4-4.91-2.62c-4.18-2-8.38-4-12.58-6.07-.23-.1-.46-.27-.73.05,0,.18.09.4.15.61.5,1.76,1,3.51,1.51,5.27.14.52-.06.72-.57.55a6.19,6.19,0,0,1-1.44-.55c-2.95-2.06-6.67-2.71-10-4.15-4.81-2.11-10-3.25-14.85-5.21a2.18,2.18,0,0,0-1.53-.12,1.51,1.51,0,0,0-.49.29l-1.14,1.47-.54.81-.45.66-6.23,9.33a1,1,0,0,0-.22.81c.07.18.28.3.68.47,1.89.8,3.79,1.59,5.68,2.4l12.45,5.29a8.88,8.88,0,0,1,.94.41.44.44,0,0,1-.11.84,6.89,6.89,0,0,1-1.28.16l-5.47.16c-.8,0-1.6.14-2.4.14-1.51,0-3-.1-4.54,0-1.67.09-3-.79-4.47-1.32a.41.41,0,0,1-.17-.34c0-.1.17-.21.29-.25a1.19,1.19,0,0,1,.42,0l4.7.29,4,.21,4.78.24c.35,0,.8.21.92-.31s-.36-.59-.7-.69c-3.37-1.07-6.76-2.1-10.12-3.21-2.21-.73-4.56-1-6.69-2.26a6.74,6.74,0,0,0-.35.64,57,57,0,0,0-2.66,8.85,55.57,55.57,0,0,0-1.07,8.21,46.84,46.84,0,0,0,.35,8.37,52.84,52.84,0,0,0,2.31,10.16,52,52,0,0,0,5,10.61,37.87,37.87,0,0,0,6.77,8.47c.31.29.61.6.91.91L75.3,226.86a2,2,0,0,0,.54.25,2.93,2.93,0,0,0,0-.43c0-.8-.1-1.59-.14-2.39a3.14,3.14,0,0,1,.61-2.09c.27-.37.52-.75.8-1.12,1.07-1.41,2.13-2.83,3.22-4.22,1.4-1.77,2.81-3.53,4.25-5.26,1-1.26,1.64-2.53,1-4.23s-1.1-3.6-1.62-5.41a2.88,2.88,0,0,1-.07-.59l.22-.08c.25.32.53.63.75,1,.54.81,1,1.64,1.58,2.45.86,1.28,1.71,2.57,2.58,3.84a2.08,2.08,0,0,1,0,2.34,7.17,7.17,0,0,1-.67,1c-1.27,1.76-2.57,3.5-3.82,5.27-1.72,2.43-3.36,4.9-5.1,7.31a7.65,7.65,0,0,0-1.39,4.59,1.25,1.25,0,0,0,.44,1l1.88,1.88a1.2,1.2,0,0,0,.32.15c.08-.12.18-.19.21-.29a3.12,3.12,0,0,1,1.51-1.67c2-1.15,3.87-2.33,5.8-3.49L97.63,221a2.81,2.81,0,0,1,.86-.36.32.32,0,0,1,.32.51,1.46,1.46,0,0,1-.3.31l-3.81,3.42-1.84,1.67c-1.41,1.29-2.82,2.58-4.21,3.89a5.3,5.3,0,0,0-1.57,3.43c-.11,1.1-.19,2.21-.38,3.3a1.32,1.32,0,0,0,.4,1.3c1,.95,1.86,1.94,2.81,2.89l7,7a5.86,5.86,0,0,0,.64.46c0-.39.06-.6.06-.81,0-.89-.07-1.77,0-2.66a30.85,30.85,0,0,1,.15-3.32c.26-1.65.32-3.34.57-5a40.18,40.18,0,0,1,2.58-8.86c1.26-3.25,2.59-6.47,3.9-9.7.32-.79.69-1.57,1.08-2.33.29-.57.59-.64,1.2-.39.32.13.62.29.93.45l10.68,5.46c.63.32,1.27.64,1.92.93a2.16,2.16,0,0,0,1.67.09,36.15,36.15,0,0,0,6-3,2.51,2.51,0,0,0,1.28-2.77c-.17-.87-.32-1.74-.5-2.61a1.25,1.25,0,0,0-1.24-1.09,10.86,10.86,0,0,0-1.28-.09h-4.46c-.34,0-.69-.06-1-.09,0-.07,0-.14,0-.2a4.4,4.4,0,0,1,1.42-.47c2.59-.47,5.17-.93,7.75-1.42a1.89,1.89,0,0,1,2.16.59c0,.06.15.06.31.12a17.88,17.88,0,0,0,1.23-3c.1-.26-.14-.42-.4-.42a6.74,6.74,0,0,0-1.19,0c-1.3.19-2.6.41-3.89.64l-6.33,1.1a3.85,3.85,0,0,1-3.9-1.59c-1.44-1.81-2.93-3.57-4.37-5.38a4.76,4.76,0,0,1-.82-1.39,2.74,2.74,0,0,1,.6-3.3,16.55,16.55,0,0,1,1.71-1.28c.35-.24.75-.4,1.11-.64.13-.08.21-.26.4-.53a7.46,7.46,0,0,0-1.18,0c-1.07.18-2.12.43-3.19.61a5.18,5.18,0,0,1-3.5-.41c-2.26-1.22-4.54-2.4-6.81-3.61-.21-.11-.41-.25-.83-.51l1.07-.56a3.66,3.66,0,0,0-.63-.37,21.07,21.07,0,0,0-2.08-.52,3.4,3.4,0,0,1-2.87-2.69c-.47-1.7-.94-3.41-1.42-5.11a1.61,1.61,0,0,0-.25-.41l-.23,0a16.23,16.23,0,0,0-.34,3c.08,1.28-.06,2.55.14,3.84A10.44,10.44,0,0,0,98.55,196a12,12,0,0,1,2,2.07,1.67,1.67,0,0,1,.17.61c-.21,0-.44.12-.62.05-2.52-.84-5-1.73-7.55-2.55a6.35,6.35,0,0,0-3-.67c-.08-.18-.17-.33-.22-.48l-1.82-5.9c-.24-.76-.52-1.51-.76-2.27a12.6,12.6,0,0,1,1.91-11.39,28.54,28.54,0,0,0,2.38-4.06,1.28,1.28,0,0,1,.68-.8,2.7,2.7,0,0,1,0,.53c-.09.53-.21,1.06-.29,1.6a40.92,40.92,0,0,1-1.76,7.14,5.11,5.11,0,0,0,0,3.69c.46,1.13,1,2.23,1.53,3.34.07.14.26.23.47.41.27-1.29.51-2.45.74-3.62s.43-2.36.72-3.53a28,28,0,0,1,.82-3.58,5.66,5.66,0,0,1,.56.57c1,1.48,2,2.91,2.91,4.45a22.88,22.88,0,0,0,7.21,7.66c2.23,1.49,4.45,3,6.71,4.46a9.45,9.45,0,0,0,6,1.75,8.14,8.14,0,0,1,.85-.08.56.56,0,0,1,.42.22.64.64,0,0,1-.06.46c-.05.12-.19.21-.27.32l-2.75,3.4a.64.64,0,0,0,0,1c.62.71,1.21,1.45,1.8,2.18s1.23,1.58,1.83,2.38a3.41,3.41,0,0,0,3.62,1.33c2.27-.41,4.56-.71,6.86-1a11.92,11.92,0,0,0,7.63-4,1.21,1.21,0,0,0,.15-.37,12.22,12.22,0,0,1-4.35-3c-1.19-1.5-1.84-3.82-1.35-5a3,3,0,0,1,.52.21c.41.26.8.56,1.19.83a7.45,7.45,0,0,0,3.68,1.53,6.32,6.32,0,0,0,1.77-.22C139.36,195.5,139.41,195.24,139.19,194.92Zm-72.5-26.84-5.2,1.72c-.19.06-.39.11-.58.18a2.39,2.39,0,0,0-.58.27l-.24.19a1.31,1.31,0,0,0-.2.21l0,0a.54.54,0,0,0-.1.16,1.59,1.59,0,0,0-.15.29,3.37,3.37,0,0,0-.1.34,1.63,1.63,0,0,0-.05.33,2.3,2.3,0,0,0,0,.26c0,1.51-.08,3-.13,4.52,0,.43-.12.85-.14,1.28-.07,1.42-.11,2.84-.16,4.26,0,.26,0,.51,0,.77s-.09.51-.1.76c-.06,1.54-.11,3.07-.16,4.61,0,.26-.06.51-.07.77-.07,1.82-.13,3.63-.23,5.45,0,.83-.13,1.65-.21,2.47,0,0,0,.06-.06.1l-.06.06-.07.07a1,1,0,0,1-.21-.19,1.07,1.07,0,0,1-.25-.35,1.54,1.54,0,0,1-.08-.19,1,1,0,0,1-.06-.23,3.06,3.06,0,0,1,0-.32c0-.16,0-.32,0-.48-.15-1.83-.27-3.67-.39-5.51-.06-.94-.08-1.88-.15-2.81s-.19-1.92-.27-2.88c0-.5-.07-1-.11-1.48l-.09-1.49c0-.39,0-.79-.08-1.19s0-.8-.09-1.19c-.09-.91-.25-1.8-.32-2.7s-.06-1.76-.12-2.64-.18-1.81-.24-2.71a22.29,22.29,0,0,1-.08-2.31,1,1,0,0,1,.07-.35,0,0,0,0,0,0,0,.8.8,0,0,1,.18-.27l.13-.13a1.64,1.64,0,0,1,.49-.26,2.21,2.21,0,0,1,.46-.1l.47,0q4.23-.08,8.48-.12a5.3,5.3,0,0,1,.69,0l.68.06a.57.57,0,0,1,.22.09,3.62,3.62,0,0,0,.34.21,0,0,0,0,0,0,0A8.09,8.09,0,0,1,66.69,168.08Zm13.66,44.73a5.94,5.94,0,0,1-.55-.67q-1.33-2.34-2.64-4.69a2.4,2.4,0,0,1-.33-.95,19,19,0,0,1,.65-6.09c.12-.44.24-.88.4-1.31a7.12,7.12,0,0,1,.42-.82c.16.15.25.2.27.26.07.31.13.61.17.92l1.83,13.22Zm38.76-29.13c-.09.06-.18.16-.27.18-2.3.41-4.52.39-6.33-1.37-.72-.7-1.35-1.48-2.06-2.18-.86-.83-1.77-1.6-2.64-2.43a1.73,1.73,0,0,1-.64-1.12c.17,0,.31-.13.43-.1q3,.79,5.94,1.62a3.25,3.25,0,0,1,.77.38,2.32,2.32,0,0,1,1.1,1.45,4,4,0,0,0,2.09,2.79,9.12,9.12,0,0,0,.88.3l.75.25C119.12,183.53,119.12,183.6,119.11,183.68Z"/><path class="cls-2" d="M67.6,167.61a8.09,8.09,0,0,1-.91.47l-5.2,1.72-.57.18a1.93,1.93,0,0,0-1.45,1.82,2.13,2.13,0,0,0,0,.25c0,1.51-.08,3-.13,4.53,0,.42-.12.84-.14,1.27-.07,1.42-.11,2.84-.16,4.27,0,.25,0,.51,0,.76s-.09.51-.1.77c-.06,1.53-.11,3.07-.16,4.6,0,.26-.06.51-.07.77-.07,1.82-.13,3.64-.22,5.46,0,.82-.14,1.64-.22,2.46,0,.07-.1.12-.19.23a2,2,0,0,1-.69-1.76c-.15-1.83-.27-3.67-.39-5.51-.06-.93-.08-1.87-.15-2.81s-.19-1.92-.27-2.88-.14-2-.2-3c-.06-.79-.09-1.59-.17-2.38s-.25-1.8-.32-2.7-.06-1.76-.11-2.63-.19-1.81-.25-2.72a22.1,22.1,0,0,1-.08-2.3,1.15,1.15,0,0,1,.88-1,2.9,2.9,0,0,1,.93-.12q4.23-.08,8.48-.12a12.59,12.59,0,0,1,1.37.08C67.17,167.31,67.3,167.44,67.6,167.61Z"/><path class="cls-1" d="M134.38,317.75c0-.21-.07-.41-.11-.61-.08-.45-.17-.89-.26-1.32l0-.21c-.1-.43-.2-.87-.31-1.3l-.18-.7-.05-.16c-.11-.42-.23-.83-.37-1.24s-.19-.62-.29-.93c-.17-.53-.35-1-.54-1.57,0-.1-.06-.2-.1-.3L132,309c-.1-.26-.19-.52-.3-.77s-.25-.63-.37-.91l-.15-.36c-.12-.28-.25-.56-.37-.82s-.31-.69-.48-1-.3-.64-.49-1l-.3-.6h0c-.09-.17-.18-.35-.28-.52l-.07-.11a2.47,2.47,0,0,0-.2-.37c-.18-.34-.38-.68-.62-1.08l-.06-.1c-.24-.4-.49-.8-.72-1.14l-.07-.12c-.22-.34-.43-.67-.62-.93a.76.76,0,0,0-.08-.11l-.11-.18c-.24-.34-.47-.67-.7-1s-.22-.3-.31-.43l-.78-1c-.3-.38-.6-.75-.9-1.1l-.1-.12-.08-.09c-.28-.34-.58-.68-.92-1.06L46.05,217.68l-.87-.89-.25-.27-.7-.76-.08-.09c-.23-.26-.47-.53-.69-.8s-.65-.78-1-1.17l-.67-.86-.08-.12h0l-.16-.21c-.13-.17-.26-.36-.4-.56l-.09-.13c-.13-.17-.24-.34-.37-.52-.39-.57-.77-1.14-1.13-1.71l-.18-.29-.13-.21-.05-.09c-.13-.2-.25-.41-.37-.61l-.13-.23c-.18-.32-.36-.64-.53-1l-.17-.32c-.07-.12-.13-.24-.19-.36l-.15-.27-.2-.4c-.17-.33-.33-.67-.49-1s-.36-.78-.53-1.17-.33-.78-.49-1.18-.29-.72-.42-1.09l-.07-.18c-.11-.28-.2-.56-.3-.84s-.26-.77-.38-1.17c-.25-.85-.47-1.64-.66-2.39l-.06-.26c0-.22-.1-.43-.14-.63l-.16-.69a1.12,1.12,0,0,0,0-.19l-.14-.7c0-.21-.07-.41-.11-.65s-.11-.63-.16-1-.12-.84-.17-1.28-.1-.88-.14-1.32-.08-1-.11-1.5v-.19c0-.19,0-.38,0-.6s0-.52,0-.83,0-.65,0-1A45.14,45.14,0,0,1,54.29,147.7a51.14,51.14,0,0,0-5.24,8.36c-.7,1.41-1.35,2.86-1.91,4.3a51.44,51.44,0,0,0-3,26A51.3,51.3,0,0,0,56,212.45l77.47,77a44.75,44.75,0,0,1,8.81,26.59v.15a44.82,44.82,0,0,1-1.88,12.92c-.08.27-.17.53-.26.83a45.2,45.2,0,0,1-5,10.52c-.61.95-1.26,1.88-1.93,2.78a72.83,72.83,0,0,0,1.84-17v-.32c0-2-.16-3.84-.17-3.92-.07-.82-.15-1.64-.26-2.43l-.12-.85,0-.12-.12-.73Z"/><path class="cls-2" d="M59.34,144.9l-.45.66.57-.64Z"/><path class="cls-1" d="M132.28,318.27c0,.22.07.45.12.78l.12.81c.11.77.19,1.55.25,2.33,0,0,0,.47.08,1.17s.07,1.63.08,2.58a75.07,75.07,0,0,1-1.06,13.25h0a43.59,43.59,0,0,1-2,7.75c-.09.23-.14.36-.15.37a.61.61,0,0,0-.05.12,31.09,31.09,0,0,1-1.48,2.94,30.58,30.58,0,0,1-1.94,3c-.38.53-.77,1.05-1.18,1.56.13-.31.26-.62.38-.94l.24-.6v0c.22-.47.42-.94.62-1.42q.56-1.33,1-2.7a42.08,42.08,0,0,0,1.43-5.05h0A46.83,46.83,0,0,0,130,333.86c0-.74,0-1.48-.05-2.21a47.26,47.26,0,0,0-12.12-29.4L79.39,264.06l-.64-.63-46.21-46a44.89,44.89,0,0,1-8.8-15.75L23,199.46h0a44,44,0,0,1-1.75-9.33c-.11-1.14-.16-2.37-.16-3.64A45.07,45.07,0,0,1,22.87,174a44.62,44.62,0,0,1,2-5.59c0-.11.09-.22.14-.33l.1-.21A50.33,50.33,0,0,1,35,153.44a29,29,0,0,1,14.54-6.59c.59-.08,1.19-.13,1.8-.17l.6,0a47.32,47.32,0,0,0-21.22,39.4c0,.33,0,.66,0,1.06s0,.57,0,.83,0,.42,0,.57v.18c0,.55.07,1.09.12,1.63s.09.93.14,1.38.11.9.18,1.35.11.69.16,1l.12.68.13.67,0,.21.16.73c.05.23.11.47.17.7l.06.26c.2.81.42,1.63.69,2.51.06.19.11.38.17.57s.15.45.23.67a2.47,2.47,0,0,0,.1.29,2.31,2.31,0,0,0,.1.28c.06.2.13.39.2.58a1.38,1.38,0,0,0,.09.23c.14.39.29.77.44,1.16s.34.83.52,1.24.36.81.55,1.22.34.72.51,1c.07.16.16.31.23.44l.14.29c.08.14.15.29.21.38l.06.11.08.16c.19.35.39.71.61,1.09l.15.26c.11.2.23.39.35.58l0,.08.17.27c.47.76.91,1.44,1.34,2.05.13.2.27.39.4.56l.08.12c.14.21.29.41.44.62l.17.22h0l.07.11.71.9c.32.41.66.82,1,1.23s.47.55.72.82a1.47,1.47,0,0,0,.1.13l.09.09h0c.21.24.42.46.68.74l.21.22c.29.32.6.63.91.93l73.07,72.67,3.71,3.69c.29.31.56.63.82.94l.18.21c.29.34.58.7.86,1.06s.49.63.75,1l.28.38c.21.28.41.56.63.88l0,.07.08.13.08.11c.15.21.29.43.43.65l.22.33c.24.37.48.76.75,1.2l.06.1c.19.32.37.64.57,1a2.26,2.26,0,0,1,.14.26l.12.21c.11.2.22.4.32.6a1.62,1.62,0,0,1,.1.18l.32.52.18.39c.16.31.31.63.47,1s.22.5.36.81c0,.08.07.16.11.28.13.29.25.59.37.89s.19.5.28.73l.15.39c.21.56.4,1.14.59,1.71l0,.09c.21.64.41,1.29.59,1.95l0,.17.21.76c.1.42.2.84.29,1.24l0,.19c.09.43.17.86.25,1.29l.06.29a.5.5,0,0,0,0,.12l0,.19Z"/><path class="cls-1" d="M40.93,146.28a33.27,33.27,0,0,0-7.41,5.54,0,0,0,0,0,0,0A46.17,46.17,0,0,0,26.37,161l0,.06,0,0a61.76,61.76,0,0,0-3.05,5.7l-.11.23c-.09.2-.17.39-.23.54a46.39,46.39,0,0,0-2.12,5.82,47.13,47.13,0,0,0-1.85,13.11c0,1.33,0,2.62.16,3.82,0,0,0,.07,0,.1A45.81,45.81,0,0,0,21,200.28l-.15.26c-.25.43-.5.87-.73,1.31s-.46.89-.68,1.35q-.73,1.52-1.32,3.09A35.06,35.06,0,0,0,16,216.62a44.76,44.76,0,0,1,24.94-70.34Z"/><path class="cls-1" d="M36.16,294.35c0-.4,0-.81-.08-1.22a31,31,0,0,0-3-11l.05,0h0a31.12,31.12,0,0,1,3,10.92C36.12,293.48,36.14,293.92,36.16,294.35Z"/><path class="cls-1" d="M47.07,313.77c-.12.67-.25,1.28-.37,1.83A42.42,42.42,0,0,1,33,338.36l-.84.74-.05-.05.89-.78A42.42,42.42,0,0,0,46.7,315.51C46.81,315,46.93,314.4,47.07,313.77Z"/><path class="cls-1" d="M70.08,408.56v.1a173,173,0,0,0-20-34.51,173.94,173.94,0,0,0-35-35.15l0-.05a174,174,0,0,1,35,35.11A172.9,172.9,0,0,1,70.08,408.56Z"/><path class="cls-1" d="M126.43,339.22l0,0-.54-.82,0-.06c-21.56-32.61-44.87-54.43-69.26-64.85L55.28,273c-7.19-3-22.15-9.31-30.07-23.59a63.29,63.29,0,0,1-6.41-23.71,63.66,63.66,0,0,0,6.41,23.62c7.92,14.28,22.88,20.57,30.07,23.59l1.27.54a107.85,107.85,0,0,1,15.82,8.45h0q3.12,2,6.23,4.29c16.43,12,32.23,29.46,47.2,52.1l0,.06Z"/><path class="cls-1" d="M127.8,333.77q0,.84,0,1.68c0,.59-.06,1.18-.1,1.77s-.1,1.17-.17,1.75c-.14,1.17-.32,2.32-.55,3.48v0a44.81,44.81,0,0,1-3.17,9.9,6.11,6.11,0,0,1-.27.58c-.43.94-.91,1.86-1.41,2.77l-.46.79c-.1.18-.21.35-.32.53a46.13,46.13,0,0,1-2.9,4.23,101.3,101.3,0,0,0-12.76,10.29c-.36.33-.71.67-1.06,1a106.11,106.11,0,0,0-24,36.35v.1c-1.63,4-3,6.07-4.25,10.36V348.59a10.16,10.16,0,0,0,2.3-.41l0,0a6.38,6.38,0,0,0,1.13-.42h0l.13-.07,0,0a5.12,5.12,0,0,0,.57-.3,9.55,9.55,0,0,0,2.56-2.09,8,8,0,0,0,.79-1.05c.13-.19.25-.39.36-.59a.09.09,0,0,1,0-.05,9.74,9.74,0,0,0-5.11-13.84.62.62,0,0,0-.19-.07,2.07,2.07,0,0,0-.33-.1l-.06,0a9.17,9.17,0,0,0-2.84-.43,9.75,9.75,0,0,0-2.43.31l-.09,0a7.24,7.24,0,0,0-.79.25l-.08,0h0a8.39,8.39,0,0,0-1.26.57c-.24.13-.46.27-.68.41a9.15,9.15,0,0,0-1.25,1c-.19.17-.38.36-.56.55a9.71,9.71,0,0,0-1,1.24c-.14.22-.28.45-.41.68a9.73,9.73,0,0,0,2.85,12.61h0l.63.42h0c.22.13.45.25.68.37l.48.22a3.8,3.8,0,0,0,.47.18v0a9.62,9.62,0,0,0,1.95.5v70.89q-1.93-5.44-4.24-10.72v-.1a172.9,172.9,0,0,0-20-34.5,174,174,0,0,0-35-35.11,110.33,110.33,0,0,0,16-24.36c.17-.37.34-.73.52-1.1a46.87,46.87,0,0,0,4.31-13.88c0-.41.09-.82.13-1.24a33.22,33.22,0,0,0,.11-4c0-.43,0-.87-.08-1.31a31.12,31.12,0,0,0-3-10.92,29.31,29.31,0,0,1,12.54,13.63,26.66,26.66,0,0,1,2.14,9,28.55,28.55,0,0,1,0,2.91c0,.31,0,.61,0,.91s0,.63-.07.94-.06.64-.1.94c-.06.5-.13,1-.2,1.46,0,.24-.08.48-.11.72s-.1.56-.15.83c0,.12,0,.24-.07.35-.14.63-.26,1.22-.37,1.74A42.42,42.42,0,0,1,33,338.27l-.89.78.05.05-.05,0,.85.82A198.58,198.58,0,0,1,56,366.2l.29.4a197.31,197.31,0,0,1,13.76,21.67v-38a12.79,12.79,0,0,1-4.36-3.51,0,0,0,0,1,0,0,15.74,15.74,0,0,1-1-1.53A12.88,12.88,0,0,1,63,338.85a12.72,12.72,0,0,1,1.54-6.07,12.91,12.91,0,0,1,2.2-2.94c.14-.14.29-.29.44-.42a11.56,11.56,0,0,1,1-.78c.16-.13.33-.24.5-.36a11.34,11.34,0,0,1,1.35-.79l.47-.23.49-.21.49-.19c.31-.11.61-.21.92-.3h0a12.74,12.74,0,0,1,6.23-.14c.35.08.69.17,1,.28a4.44,4.44,0,0,1,.61.22l.48.18A12.87,12.87,0,0,1,85.8,331s0,0,0,0a12.65,12.65,0,0,1,2.71,7.84,10,10,0,0,1-.11,1.55,6.59,6.59,0,0,1-.16,1,5.32,5.32,0,0,1-.18.79l-.09.3a5.07,5.07,0,0,1-.24.72,1.21,1.21,0,0,1,0,.14c0,.14-.1.27-.16.4a.35.35,0,0,1-.06.14,5.24,5.24,0,0,1-.29.64c-.14.28-.28.55-.44.82l-.08.13c-.15.24-.3.47-.46.7s-.38.52-.58.76a8.67,8.67,0,0,1-.64.72,5.44,5.44,0,0,1-.48.48c-.18.17-.36.34-.55.49a6,6,0,0,1-.49.39l0,0a9,9,0,0,1-.74.52c-.24.16-.48.3-.73.44s-.58.31-.88.44l-.5.22V390.4a146.23,146.23,0,0,1,16.06-23.82l.27-.33a146.64,146.64,0,0,1,28.67-26.33l.31-.22.56-.39,0-.06,0,0-.58-.88,0-.06c-15-22.64-30.77-40.07-47.2-52.1q-3.1-2.28-6.23-4.29h0a107.85,107.85,0,0,0-15.82-8.45l-1.27-.54c-7.19-3-22.15-9.31-30.07-23.59a63.66,63.66,0,0,1-6.41-23.62c-.11-1.52-.17-3.1-.16-4.72,0-.54,0-1.1.06-1.67.07-1,.17-2.11.31-3.15a39.52,39.52,0,0,1,1.67-7.46c.15-.39.3-.78.46-1.17s.38-.89.59-1.33.41-.87.63-1.29a1.51,1.51,0,0,1,.11-.22A46.31,46.31,0,0,0,25,210.32a4.79,4.79,0,0,0,.25.45A47.22,47.22,0,0,0,31,218.94l85.28,84.81a45.11,45.11,0,0,1,11.44,26.65c0,.45.06.9.08,1.35C127.79,332.42,127.8,333.09,127.8,333.77Z"/><polyline class="cls-2" points="42.83 217.63 42.82 217.62 42.73 217.53"/></g></svg>