<svg id="_1500_x_1500_px_Logo_6" data-name="1500 x 1500 px Logo 6" xmlns="http://www.w3.org/2000/svg" viewBox="0 0 1500 1500"><defs><style>.cls-1,.cls-2{fill:#34e0a1;}.cls-2{fill-rule:evenodd;}</style></defs><path class="cls-1" d="M778.89,450.36q-10.46,4.17-14.28,16t-3.83,38.31v345.5q0,26.47,3.83,38.31t14.62,16q10.8,4.18,33.79,5.57V924q-38.32-2.09-109.36-2.09-74.55,0-110.06,2.09V910.09q25.08-1.38,36.57-5.57a25,25,0,0,0,15.67-16Q650,876.67,650,850.19V485.88L482.15,924.72H471L282.93,476.13V809.79q0,41.1,4.18,60.25t18.11,27.86q13.92,8.72,45.27,12.19V924q-27.17-2.09-75.23-2.09-38.31,0-60.6,2.09V910.09q23-3.48,33.79-11.84t14.62-26.47q3.82-18.1,3.84-53.63V504.69q0-26.46-3.84-38.31t-14.62-16q-10.81-4.19-33.79-5.58V430.85q22.29,2.08,60.6,2.09,64.08,0,110.06-2.09L526,770.08,654.2,432.94h49.46q71,0,109.36-2.09v13.93Q789.34,446.19,778.89,450.36Z"/><path class="cls-1" d="M248.85,1069.15H237.14v-61.57H216.08v-10h53.83v10H248.85Z"/><path class="cls-1" d="M357.79,1040.55v28.6H346.08V997.54h20.23q13.86,0,20.52,5.19t6.66,15.68q0,13.36-13.91,19.05l20.23,31.69H386.49l-17.15-28.6Zm0-9.7h8.13q8.18,0,11.85-3t3.67-9q0-6.07-4-8.72t-12-2.64h-7.73Z"/><path class="cls-1" d="M519.81,1069.15l-7.15-19.89H485.28l-7,19.89H465.94l26.79-71.9h12.73l26.79,71.9Zm-10.23-30-6.71-19.49q-.74-1.95-2-6.17c-.86-2.81-1.46-4.87-1.78-6.17a110.84,110.84,0,0,1-3.87,13.17l-6.47,18.66Z"/><path class="cls-1" d="M647.7,997.54h12.15l-25.08,71.61H622.43l-25-71.61h12l14.94,44.52c.78,2.13,1.62,4.86,2.5,8.21s1.45,5.83,1.71,7.47c.43-2.48,1.08-5.36,2-8.62s1.6-5.68,2.16-7.25Z"/><path class="cls-1" d="M775,1069.15H734.5V997.54H775v9.9h-28.8v19.49h27v9.8h-27v22.48H775Z"/><path class="cls-1" d="M855.68,1069.15v-10H886V997.54h11.71v71.61Z"/><path class="cls-1" d="M975.25,1069.15V997.54H987v61.57h30.32v10Z"/><path class="cls-1" d="M1135.32,1069.15h-40.51V997.54h40.51v9.9h-28.8v19.49h27v9.8h-27v22.48h28.8Z"/><path class="cls-1" d="M1227.7,1040.55v28.6H1216V997.54h20.23q13.86,0,20.52,5.19t6.66,15.68q0,13.36-13.91,19.05l20.23,31.69H1256.4l-17.14-28.6Zm0-9.7h8.13q8.18,0,11.85-3t3.67-9q0-6.07-4-8.72t-12-2.64h-7.74Z"/><path class="cls-1" d="M1285.34,893.38q-18.81,21.58-40.4,31t-52.25,9.41q-40.39,0-63.73-17.07t-30.3-58.16l-12.54-69.66q-9.06-50.83-21.94-74.88t-42.84-24H976.06V850.19q0,26.47,3.83,38.31t14.28,16q10.46,4.18,34.13,5.57V924q-37.6-2.09-105.18-2.09-74.55,0-110.06,2.09V910.09q23-1.38,33.79-5.57t14.62-16q3.82-11.84,3.83-38.31V504.69q0-26.46-3.83-38.31t-14.62-16q-10.82-4.19-33.79-5.58V430.85q35.54,2.08,105.88,2.09l77.32-.7q13.92-.67,32-.69,96.14,0,144.54,31.34t48.41,89.86q0,49.47-36.22,87.07t-119.81,47.37q62.68,5.58,93.34,27.17t39.71,64.78l16,71.74q5.57,27.87,12.88,39T1247.72,901a33.1,33.1,0,0,0,14.28-4.18q5.91-3.48,13.59-11.84ZM991.73,449.66q-8.72,4.88-12.19,17.41t-3.48,37.62V676h30q57.1,0,78.37-30.3t21.24-85.33q0-57.1-20.2-86.37t-66.17-29.26Q1000.44,444.78,991.73,449.66Z"/><path class="cls-2" d="M831.05,708.59a9.43,9.43,0,0,0-7.08,5.92c-.62,1.5-.73,2.26-.68,5,0,1.33,0,2.42,0,2.42l-1.27-.41c-2.37-.77-3.62-.91-5.2-.59a6.41,6.41,0,0,0-3,1.63c-2,1.84-3,4.6-3.26,8.5l-.08,1.27-1-1a16.72,16.72,0,0,0-3.62-2.72,10,10,0,0,0-4.69-.75,19.63,19.63,0,0,0-5.85.72,31.13,31.13,0,0,0-6,1.93,11.26,11.26,0,0,0-5.12,3.65A11.49,11.49,0,0,0,782,739a9.47,9.47,0,0,0,.55,5.49,10.45,10.45,0,0,0,2.11,2.41c.46.36.68.62.68.79,0,.81-2.74,11.41-3.7,14.4a10.48,10.48,0,0,1-1.71,3.39,14.64,14.64,0,0,0-2.37,4.81,10.53,10.53,0,0,0-.37,4.47c.24,1.57.55,2.39,1.13,2.9s.73.81.65,1.46c0,.3-.13,1.26-.19,2.13s-.25,2.76-.42,4.2c-.35,3.09-.3,3.75.37,5.12.52,1.07.84,1.33,1.62,1.33h.6l0,2.18a19,19,0,0,0,.44,5.42,4.56,4.56,0,0,0,1.68,2.06,11.85,11.85,0,0,0,4.24,1.85,31,31,0,0,0,5.3,1.24c.53.08,1,.16,1,.17s-.08.43-.17.94A41.25,41.25,0,0,0,793,816a14.83,14.83,0,0,0,1,5.49c1.22,3.57,1.24,3.66,1.18,4.62s-.39,3.71-1,8.13c-.26,1.81-.68,5-.94,7.2-.53,4.36-.66,5-1.21,6.08-.37.73-.37.74-1.77,1.49a43.11,43.11,0,0,0-5.62,3.71c-1.48,1.23-5.75,5.27-8.31,7.87-1.89,1.91-2.42,2.37-2.75,2.44-.69.14-1,.38-1.17.82a8.34,8.34,0,0,1-2.75,3.81,2.81,2.81,0,0,1-1,.23c-.66,0-.93.22-1.27,1a5.77,5.77,0,0,1-2.22,2.25,7.26,7.26,0,0,0-1,.63,1.78,1.78,0,0,1-.46.3,1.39,1.39,0,0,0-.44.34c-.37.39-.38.58-.23,3.07l.07,1.23-1.32.67c-.74.36-1.86.84-2.51,1.08a15.24,15.24,0,0,0-6,3.55l-.47.49,0,2.19a12.69,12.69,0,0,0,.5,4.3,19,19,0,0,0,1.18,3.92c.26.51.43.66.82.72s.31.12.39.62a31.37,31.37,0,0,0,1.37,6,16.87,16.87,0,0,0,1.81,4.29,7.78,7.78,0,0,0,2.4,2.33,15.14,15.14,0,0,0,4.15,2.18,15.45,15.45,0,0,1,1.61.55l.91.34-.75,1.48c-.67,1.35-.78,1.5-1.13,1.61s-.85.62-2,2.4c-1,1.58-1,1.66.33,2.3a9.12,9.12,0,0,0,3.08,1,6.88,6.88,0,0,0,1.13-2.4,9.51,9.51,0,0,1,.54-1.25c.24-.37.2-.71-.09-.86l-.31-.17s.37-.83.85-1.8l.89-1.77h.5a8.58,8.58,0,0,0,3.52-1c.49-.34.84-1.25,1.07-2.7.3-1.93.16-2.61-.74-3.61l-.42-.47,1.18-2.29c.66-1.28,3.91-7.65,7.23-14.18,4.3-8.43,6.18-12,6.49-12.33s.73-.71,3.93-3.47a74.42,74.42,0,0,1,7.37-5.18c.46-.28,1.35-.93,2-1.44s1.66-1.25,2.26-1.67a19.29,19.29,0,0,0,1.7-1.3c.32-.29,1.12-1,1.74-1.45a5.67,5.67,0,0,0,1.89-2.17c.4-.69,1.17-1.9,1.68-2.71,2.6-4,2.63-4.13,5.9-13.3.26-.71.71-2,1-2.73l.56-1.43.67,1.32c.36.74,1.05,2.06,1.55,3a14.16,14.16,0,0,1,1.1,2.4c.12.43.53,1.63.92,2.66,1.54,4.07,1.9,5,2,5.18s0,.33-.1.61a2.11,2.11,0,0,0,.24,2.48c.55.7.55,1,0,2.34a8,8,0,0,0-.48,1.28,2.35,2.35,0,0,0,.41.73,2,2,0,0,1,.41,1c0,.2-1,3.18-2.18,6.63-2.59,7.44-5.21,15-8.77,25.26-2.29,6.65-4.82,13.86-5,14.41a.26.26,0,0,1-.33.14.68.68,0,0,0-.41.06,27.13,27.13,0,0,0-1.74,4.14c-.19.67-.19.7,0,.92a4.87,4.87,0,0,0,1.68.53c2.51.54,2.61.55,2.74.21,0-.09.28-1.12.54-2.27.49-2.17.51-2.62.09-2.76-.19-.06-.22-.14-.17-.38s1.72-5.11,8.24-23.76c5.73-16.43,5.32-15.5,5.07-11.46a13.54,13.54,0,0,0,.1,3.63,37.37,37.37,0,0,1,.45,5.33l0,1,.43.37c.24.21.75.6,1.14.87a2.5,2.5,0,0,1,.71.62,9,9,0,0,1-.93,1.21,4.28,4.28,0,0,0-1.05,1.62,27.76,27.76,0,0,0-.18,4.82,2.35,2.35,0,0,0,1.54,2.24c.52.24.7.39.67.52A100.79,100.79,0,0,0,826.24,908l-.08,1,.46.18a36.78,36.78,0,0,0,7.88,1,3.61,3.61,0,0,0,1.72-.18c.52-.25.93-.23,1.83.11,1.78.67,2.28.7,10.26.68,6.18,0,7.46-.05,8.2-.21a7.05,7.05,0,0,0,2.63-.88c.2-.22.21-.32.08-1.09a15.15,15.15,0,0,0-2.7-6.42c-.62-.69-1.11-1-3.12-1.65-4.64-1.62-5.46-2-6.63-3.12a18.89,18.89,0,0,1-2.76-3.36,10.35,10.35,0,0,1-.85-4.31c-.09-2.16-.16-2.47-.65-2.86-.27-.21-.47-.25-1.32-.25h-1l.21-2.25c.1-1.23.34-2.91.5-3.71s.58-3.45.93-5.86c.76-5.23,1.45-9.46,2-12.36.51-2.66,1.14-7,1.48-10.18a44.81,44.81,0,0,0,.26-5.43,30.14,30.14,0,0,0-.55-6.61c-1.16-7.71-1.58-10.08-2.66-14.84l-.6-2.67.41-1.19c.66-2,5.8-16.8,7.29-21.06l1.37-3.94.57-.2a5.91,5.91,0,0,0,3.19-3.12,4.76,4.76,0,0,0,.18-.75,2.31,2.31,0,0,1,.41-.68,2.94,2.94,0,0,0,.64-1.86,1.1,1.1,0,0,1,.17-.65,1.92,1.92,0,0,0,.23-1.72,5.36,5.36,0,0,0-.28-.86c-.09-.18,0-.42.57-1.26a8.1,8.1,0,0,0,.83-1.48c.13-.4.12-.48-.08-.76-.39-.53-3-1.3-4.35-1.3-1,0-1.09.19-1.35,2.1l-.13,1-1.93.07c-1.06,0-2.17.11-2.48.15a1.55,1.55,0,0,1-1.17-.2,36.7,36.7,0,0,1-5-4.05c-.64-.59-1.7-1.47-2.34-1.95s-1.71-1.3-2.37-1.83l-1.2-.94.06-1.42c0-.78.08-2.15.12-3.06.09-2.24.47-6.26.82-8.71a15,15,0,0,0-.54-7.87c-.25-.88-.56-2.06-.7-2.63s-.43-1.83-.65-2.79-.43-1.85-.47-2c-.11-.39,2.34-1.44,4.6-2a5,5,0,0,0,1.24-.42c.23-.21.26-.57.07-1,0-.18-.24-1-.41-1.78a14.32,14.32,0,0,0-.63-2.27l-.34-.81.35-.35a4.6,4.6,0,0,0,.66-1,5,5,0,0,1,.87-1.15,1.55,1.55,0,0,0,.64-1.12c.07-.55.09-.59.53-.72s.76-.45,1.08-1.76c.16-.59.31-1.09.34-1.14a6.07,6.07,0,0,1,1.08-.08c.94,0,1,0,1.25-.31s.23-.38.15-1.11c0-.44-.17-1.33-.29-2l-.22-1.15.51-1.47c.3-.81.54-1.49.55-1.51a33.91,33.91,0,0,1,4.6,1.36c3.74,1.4,4.16,1.49,4.33.92.13-.41-.7-1.48-1.65-2.11a44.52,44.52,0,0,0-5.75-2.92c-.44-.15-1-.39-1.37-.53l-.59-.28,0-2.33c0-3.28-.25-5.12-1.14-6.86a8,8,0,0,0-2.49-2.49,14.8,14.8,0,0,0-4-.85A50.76,50.76,0,0,0,831.05,708.59Zm9.09,84.22a21.78,21.78,0,0,0,5.67.22c.74-.06,1.09,0,1.15,0a5.82,5.82,0,0,1,.25.79,3.82,3.82,0,0,0,1,1.71l.28.31-.43.72a15.84,15.84,0,0,1-2.35,2.91,4.52,4.52,0,0,1-2.4,1.17,1.84,1.84,0,0,0-.88.31,10.61,10.61,0,0,0,.09,3.18c.18.22.74.19,1.25-.07a10.51,10.51,0,0,0,2.54-2.4,2.31,2.31,0,0,1,.49-.61s-.65,2-4.94,14.23c-.69,2-1.29,3.64-1.34,3.72s-.2-.26-.36-.87a55.85,55.85,0,0,0-4-9.51c-1.15-2.33-2.77-5.39-3.14-6-.1-.14-.1-.43,0-1a16.67,16.67,0,0,0,.36-3.05v-.77l.71-.61a2,2,0,0,0,.88-1.3,1.41,1.41,0,0,1,.51-.9c1.06-.65,1.21-1.09.74-2.21l-.33-.81,1.52.28C838.2,792.38,839.45,792.64,840.14,792.81Zm-50,79.44s0,.09-.12.13-.12,0-.12,0a.13.13,0,0,1,.12-.13C790.1,872.2,790.15,872.22,790.15,872.25ZM778,890.12c-3.06,6-5.58,10.94-5.6,11s-.8-1.39-.94-2.11c-.09-.47-.27-1.3-.4-1.85a35.41,35.41,0,0,1-.61-4.25l-.14-1.37.44-.64a10.12,10.12,0,0,1,1.31-1.41c.91-.82,1.1-1.18,1.1-2.1,0-.46,0-.51,1.27-1.49,1.48-1.18,3.6-2.73,5.92-4.33.91-.63,2-1.42,2.4-1.77s.78-.63.79-.62S781.08,884.1,778,890.12Z"/></svg>